<?xml version="1.0" standalone="no"?>
<!DOCTYPE svg PUBLIC "-//W3C//DTD SVG 20010904//EN"
 "http://www.w3.org/TR/2001/REC-SVG-20010904/DTD/svg10.dtd">
<svg version="1.0" xmlns="http://www.w3.org/2000/svg"
 width="226.000000pt" height="226.000000pt" viewBox="0 0 226.000000 226.000000"
 preserveAspectRatio="xMidYMid meet">
<metadata>
Created by potrace 1.14, written by Peter Selinger 2001-2017
</metadata>
<g transform="translate(0.000000,226.000000) scale(0.100000,-0.100000)"
fill="#000000" stroke="none">
<path d="M737 1864 c-1 -1 -27 -4 -57 -8 -122 -12 -160 -37 -230 -153 -107
-175 -180 -282 -199 -293 -18 -9 -21 -6 -31 29 -12 47 -21 50 -117 48 -79 -3
-108 -21 -98 -62 3 -11 5 -25 5 -31 0 -19 43 -31 120 -33 41 -1 78 -5 82 -7
16 -10 7 -36 -23 -65 -17 -16 -42 -54 -55 -83 -44 -96 -55 -188 -57 -465 l-2
-253 38 -33 c35 -31 37 -35 37 -93 0 -39 5 -66 14 -75 12 -11 55 -14 223 -14
213 1 233 4 233 40 0 16 93 101 113 103 7 1 15 3 20 4 19 4 98 2 104 -3 3 -4
13 -2 23 3 10 5 20 7 23 3 5 -5 70 -7 90 -3 21 4 98 2 104 -3 3 -4 13 -2 23 3
10 5 20 7 23 3 8 -7 85 -8 92 -1 3 3 21 2 40 -2 19 -4 36 -5 39 -2 8 7 95 6
103 -1 3 -4 13 -2 23 3 10 5 20 7 24 3 3 -3 19 -6 35 -7 35 -1 131 -78 131
-105 0 -33 39 -39 243 -39 159 1 201 4 213 15 14 14 18 45 14 110 -1 25 5 35
29 49 17 10 35 30 40 45 10 28 6 504 -4 549 -3 14 -8 36 -11 50 -16 82 -55
165 -95 201 -16 14 -29 36 -29 47 0 20 5 22 68 23 95 1 109 4 130 22 22 20 25
56 6 82 -12 17 -28 20 -95 22 -87 2 -109 -9 -109 -53 0 -17 -6 -24 -20 -24
-13 0 -38 27 -80 90 -33 49 -60 94 -60 99 0 5 -4 11 -8 13 -5 2 -33 43 -62 91
-70 115 -100 136 -220 154 -37 5 -838 12 -843 7z"/>
</g>
</svg>
